<?xml version="1.0" encoding="utf-8"?>
<svg width="415px" height="130px" viewBox="0 0 415 130" version="1.1" xmlns:xlink="http://www.w3.org/1999/xlink" xmlns="http://www.w3.org/2000/svg">
  <desc>Created with Lunacy</desc>
  <g id="Varmora-Logo">
    <g id="Group" transform="translate(34.85254 15.97812)">
      <g id="Layer-1">
        <path d="M0 0C8.17854 8.36351 18.7689 3.86774 16.7219 22.4465C12.8789 13.7439 0.333739 14.2141 0 0" transform="matrix(1 0 0 -1 315.3629 22.4465)" id="Shape" fill="#0099D9" stroke="none" />
        <path d="M0 0C3.93468 7.81267 0.73579 13.0362 9.10032 21.1238C15.9036 27.1791 25.6747 28.3716 30.0879 37.351C27.8684 26.183 26.4248 15.1813 9.90426 7.41592C16.7645 8.75208 20.0067 4.33154 28.1297 7.41592C16.9379 -3.86359 9.59626 4.18382 0 0" transform="matrix(1 0 0 -1 306.1891 44.55313)" id="Shape" fill="#A8CF45" stroke="none" />
        <path d="M0 0.824568C4.37898 -0.886673 10.3857 -0.0725435 17.9175 4.57329C7.52233 9.59321 6.6739 3.01922 0 0.824568" transform="matrix(1 0 0 -1 324.3775 37.06467)" id="Shape" fill="#FFCC29" stroke="none" />
        <path d="M2.36913 0C4.08539 6.59874 8.34779 12.6861 1.74599 17.8267C-0.887002 10.6927 -0.431387 6.35076 2.36913 0" transform="matrix(1 0 0 -1 305.0745 23.25989)" id="Shape" fill="#A8CF45" stroke="none" />
        <path d="M2.29068 27.1956C-1.47463 19.4603 0.172527 14.2585 1.79364 9.18294C2.74431 6.24528 3.67535 3.34793 3.56589 0C9.69433 9.20571 7.05008 14.4227 4.63618 19.1462C3.30335 21.7892 2.05728 24.2485 2.29068 27.1956" transform="matrix(1 0 0 -1 301.0444 42.04633)" id="Shape" fill="#FFCC29" stroke="none" />
        <path d="M214.682 19.1513C214.682 11.9896 212.688 6.84897 208.731 3.74065C205.481 1.24535 200.785 0 194.591 0C187.731 0 182.682 1.44969 179.41 4.32561C175.83 7.47201 174.014 12.5631 174.014 19.5646C174.014 25.2852 175.637 29.7356 178.837 32.9646C182.294 36.4386 187.518 38.1871 194.435 38.1871C202.063 38.1871 207.439 36.5006 210.57 33.1692C213.317 30.2028 214.682 25.5352 214.682 19.1513ZM44.1882 37.5319L26.4639 0.524048L17.2304 0.524048L0 37.5319L10.0632 37.5319L22.0549 9.4486L34.1003 37.5319L44.1882 37.5319ZM61.1232 37.5319L76.9733 0.62204L67.7591 0.62204L64.6344 9.05793L49.4242 9.05793L46.103 0.62204L36.9749 0.62204L52.1085 37.5319L61.1232 37.5319ZM108.597 0.62204L119.006 0.62204L108.794 15.661C111.424 16.1103 113.603 17.2429 115.334 19.0358C117.045 20.8409 117.921 23.0088 117.921 25.5653C117.921 28.8056 116.903 31.5925 114.911 33.9847C112.903 36.3704 110.352 37.5319 107.316 37.5319L80.3108 37.5319L80.3108 0.62204L89.0939 0.62204L89.0939 15.0451L99.0416 15.0451L108.597 0.62204ZM160.448 0.62204L168.434 0.62204L168.434 37.5319L155.607 37.5319L145.231 8.34824L134.419 37.5319L122.09 37.5319L122.09 0.62204L129.778 0.62204L129.778 29.4628L140.545 0.62204L150.029 0.62204L160.448 28.8438L160.448 0.62204ZM258.855 0.62204L248.44 0.62204L238.859 15.0451L228.896 15.0451L228.896 0.62204L220.17 0.62204L220.17 37.5319L247.158 37.5319C250.224 37.5319 252.76 36.3704 254.741 33.9847C256.755 31.5925 257.756 28.8056 257.756 25.5653C257.756 23.0088 256.896 20.8409 255.157 19.0358C253.445 17.2429 251.266 16.1103 248.641 15.661L258.855 0.62204ZM301.683 0.62204L292.446 0.62204L289.334 9.05793L274.098 9.05793L270.785 0.62204L261.657 0.62204L276.791 37.5319L285.795 37.5319L301.683 0.62204ZM202.709 27.9996C204.437 25.8794 205.308 22.9726 205.308 19.3539C205.308 15.4317 204.657 12.4412 203.381 10.4457C201.773 7.88102 198.953 6.60614 194.959 6.60614C190.21 6.60614 186.947 7.90297 185.188 10.5337C183.931 12.4412 183.299 15.3653 183.299 19.3539C183.299 22.7981 184.099 25.6087 185.674 27.731C187.578 30.3111 190.405 31.5854 194.116 31.5854C197.911 31.5854 200.785 30.3918 202.709 27.9996ZM61.795 15.5069L51.9527 15.5069L56.7866 28.4833L61.795 15.5069ZM281.459 28.4833L286.463 15.5069L276.604 15.5069L281.459 28.4833ZM109.56 25.9424C109.56 27.6598 108.918 28.9813 107.618 29.9175C106.354 30.8475 104.636 31.3299 102.437 31.3299L89.0939 31.3299L89.0939 20.9855L102.7 20.9855C104.361 20.9855 105.817 21.3525 107.128 22.0777C108.746 23.0088 109.56 24.2993 109.56 25.9424ZM247.481 29.9175C248.763 28.9813 249.413 27.6598 249.413 25.9424C249.413 24.2993 248.612 23.0088 247 22.0777C245.684 21.3525 244.185 20.9855 242.54 20.9855L228.896 20.9855L228.896 31.3299L242.284 31.3299C244.464 31.3299 246.178 30.8475 247.481 29.9175Z" transform="matrix(1 0 0 -1 0 45.71576)" id="Shape" fill="#ED2884" fill-rule="evenodd" stroke="none" />
        <path d="M58.521 6.54122L62.4676 6.54122C62.6158 5.47806 63.0536 4.6894 63.7744 4.17536C64.4943 3.66222 65.5394 3.40581 66.9047 3.40581C68.0623 3.40581 68.9409 3.61245 69.5314 4.02714C70.121 4.4371 70.4143 5.04997 70.4143 5.85644C70.4143 7.03644 68.7205 8.00961 65.3328 8.78441L65.2151 8.81094C65.1302 8.82905 64.9904 8.86072 64.8056 8.90104C62.9944 9.29754 61.7021 9.74379 60.927 10.2397C60.2425 10.6765 59.7197 11.2711 59.3594 12.0142C58.9989 12.7574 58.8187 13.6362 58.8187 14.6496C58.8187 16.5417 59.4633 17.9919 60.7469 19.001C62.0308 20.0101 63.8826 20.5148 66.3099 20.5148C68.5804 20.5148 70.3552 19.9782 71.6345 18.9023C72.914 17.8253 73.585 16.3116 73.6572 14.3518L69.8197 14.3518C69.7477 15.2938 69.3872 16.0095 68.7384 16.5054C68.0847 16.9964 67.1614 17.2444 65.954 17.2444C64.9088 17.2444 64.103 17.0418 63.5348 16.6318C62.9676 16.2215 62.6837 15.6362 62.6837 14.8795C62.6837 13.8523 63.7871 13.0817 65.995 12.5727C66.5941 12.4286 67.0582 12.3207 67.3913 12.239C68.8106 11.8788 69.8145 11.5999 70.4093 11.3973C70.9997 11.194 71.5178 10.9691 71.959 10.7253C72.7518 10.2844 73.3421 9.70347 73.7386 8.97836C74.1351 8.25219 74.3334 7.38298 74.3334 6.36949C74.3334 4.34701 73.6529 2.77918 72.2876 1.6663C70.9232 0.554088 68.9993 0 66.522 0C64.0755 0 62.1568 0.567136 60.765 1.70251C59.3732 2.83326 58.6249 4.45089 58.521 6.54122ZM5.75698 0.540588L5.75698 16.5142L0 16.5142L0 19.9741L15.487 19.9741L15.487 16.5142L9.75737 16.5142L9.75737 0.540588L5.75698 0.540588ZM17.9241 19.9741L17.9241 0.540588L21.9244 0.540588L21.9244 19.9741L17.9241 19.9741ZM26.0914 0.540588L26.0914 19.9741L30.092 19.9741L30.092 4.13505L39.5784 4.13505L39.5784 0.540588L26.0914 0.540588ZM41.7683 19.9741L41.7683 0.540588L56.3638 0.540588L56.3638 4.13505L45.7145 4.13505L45.7145 9.13525L55.0165 9.13525L55.0165 12.4605L45.7145 12.4605L45.7145 16.5956L55.8857 16.5956L55.8857 19.9741L41.7683 19.9741ZM100.484 19.9741L100.484 0.540588L109.345 0.540588C111.606 0.540588 113.35 1.05372 114.583 2.08603C115.813 3.1132 116.431 4.5769 116.431 6.46932C116.431 7.60368 116.183 8.54993 115.687 9.31132C115.192 10.0724 114.439 10.6585 113.44 11.0633C114.21 11.4239 114.791 11.9326 115.178 12.5908C115.561 13.2482 115.755 14.0727 115.755 15.0545C115.755 16.654 115.232 17.8751 114.192 18.7127C113.147 19.5552 111.634 19.9741 109.647 19.9741L100.484 19.9741ZM129.049 19.9741L124.431 19.9741L117.517 0.540588L121.728 0.540588L123.008 4.541L130.54 4.541L131.86 0.540588L136.059 0.540588L129.049 19.9741ZM141.122 0.540588L141.122 16.5142L135.365 16.5142L135.365 19.9741L150.852 19.9741L150.852 16.5142L145.123 16.5142L145.123 0.540588L141.122 0.540588ZM153.154 19.9741L153.154 0.540588L157.182 0.540588L157.182 9.1628L165.209 9.1628L165.209 0.540588L169.236 0.540588L169.236 19.9741L165.209 19.9741L165.209 12.7307L157.182 12.7307L157.182 19.9741L153.154 19.9741ZM177.025 0.540588L171.457 19.9741L175.602 19.9741L178.926 6.26573L181.728 19.9741L185.998 19.9741L188.8 6.26573L192.13 19.9741L196.243 19.9741L190.674 0.540588L186.863 0.540588L183.858 15.4245L180.836 0.540588L177.025 0.540588ZM202.927 19.9741L207.545 19.9741L214.554 0.540588L210.356 0.540588L209.036 4.541L201.503 4.541L200.224 0.540588L196.013 0.540588L202.927 19.9741ZM216.555 0.540588L216.555 19.9741L225.988 19.9741C228.109 19.9741 229.677 19.5235 230.7 18.6183C231.722 17.7128 232.232 16.3253 232.232 14.4649C232.232 13.28 231.984 12.2888 231.483 11.5001C230.988 10.7074 230.272 10.1676 229.334 9.87928C230.177 9.57721 230.776 9.12247 231.132 8.50458C231.488 7.88767 231.691 6.92826 231.745 5.62657L231.826 3.3293L231.826 3.24794C231.853 2.08603 232.105 1.38307 232.582 1.13511L232.582 0.540588L228.203 0.540588C228.065 0.815133 227.956 1.14887 227.88 1.54969C227.808 1.95048 227.763 2.42842 227.744 2.9818L227.69 5.0318C227.646 6.23917 227.42 7.04997 227.01 7.47326C226.601 7.89704 225.862 8.1081 224.799 8.1081L220.555 8.1081L220.555 0.540588L216.555 0.540588ZM235.849 19.9741L235.849 0.540588L250.444 0.540588L250.444 4.13505L239.795 4.13505L239.795 9.13525L249.097 9.13525L249.097 12.4605L239.795 12.4605L239.795 16.5956L249.966 16.5956L249.966 19.9741L235.849 19.9741ZM109.052 4.05438L104.322 4.05438L104.322 9.13523L109.025 9.13523C110.182 9.13523 111.011 8.93705 111.516 8.53642C112.016 8.13561 112.268 7.48269 112.268 6.57723C112.268 5.70289 112.012 5.06779 111.503 4.66187C110.989 4.25699 110.174 4.05438 109.052 4.05438ZM87.7702 5.42142C85.0786 5.42142 82.9305 7.59421 82.9305 10.2859C82.9305 12.9779 85.0786 15.1231 87.7702 15.1231C90.4597 15.1231 92.635 12.9779 92.635 10.2859C92.635 7.59421 90.4597 5.42142 87.7702 5.42142ZM126.756 16.0817L124.062 7.81131L129.459 7.81131L126.756 16.0817ZM202.558 7.81131L205.252 16.0817L207.955 7.81131L202.558 7.81131ZM225.258 11.4874L220.555 11.4874L220.555 16.6224L225.442 16.6224C226.37 16.6224 227.064 16.406 227.532 15.9692C227.997 15.5367 228.231 14.8976 228.231 14.0549C228.231 13.1675 227.992 12.5189 227.51 12.1043C227.033 11.6941 226.281 11.4874 225.258 11.4874ZM104.322 12.4605L108.881 12.4605C109.867 12.4605 110.584 12.6311 111.043 12.9692C111.498 13.3073 111.728 13.8385 111.728 14.568C111.728 15.2803 111.507 15.7934 111.061 16.1134C110.62 16.4335 109.886 16.5955 108.854 16.5955L104.322 16.5955L104.322 12.4605Z" transform="matrix(1 0 0 -1 45.92548 91.44168)" id="Shape" fill="#464646" fill-rule="evenodd" stroke="none" />
      </g>
    </g>
  </g>
</svg>